<?xml version="1.0" standalone="no"?>
<!DOCTYPE svg PUBLIC "-//W3C//DTD SVG 20010904//EN"
 "http://www.w3.org/TR/2001/REC-SVG-20010904/DTD/svg10.dtd">
<svg version="1.0" xmlns="http://www.w3.org/2000/svg"
 width="512.000000pt" height="512.000000pt" viewBox="0 0 512.000000 512.000000"
 preserveAspectRatio="xMidYMid meet">
<metadata>
Created by potrace 1.11, written by Peter Selinger 2001-2013
</metadata>
<g transform="translate(0.000000,512.000000) scale(0.100000,-0.100000)"
fill="#000000" stroke="none">
<path d="M0 2560 l0 -2560 2560 0 2560 0 0 2560 0 2560 -2560 0 -2560 0 0
-2560z m479 1257 c41 -119 78 -214 81 -211 3 3 39 101 80 217 51 142 80 212
90 212 9 0 39 -70 89 -212 42 -117 78 -214 81 -217 3 -2 39 93 81 212 41 118
80 217 87 220 22 7 12 -30 -71 -263 -53 -147 -87 -230 -96 -230 -9 0 -41 79
-91 220 -70 198 -79 218 -89 195 -6 -14 -42 -113 -80 -220 -44 -123 -74 -195
-82 -195 -14 0 -177 439 -178 478 -2 56 30 -13 98 -206z m721 123 l0 -99 36
24 c64 43 154 31 187 -25 22 -36 26 -304 5 -298 -9 3 -14 44 -18 140 -6 162
-14 178 -89 178 -94 0 -121 -47 -121 -211 0 -84 -3 -110 -12 -107 -10 4 -14
65 -16 251 -2 215 0 247 13 247 12 0 15 -17 15 -100z m870 -1 l0 -101 31 26
c24 21 41 26 83 26 65 0 101 -24 116 -78 15 -51 9 -264 -7 -270 -10 -3 -13 23
-13 110 0 126 -12 183 -40 198 -45 24 -137 2 -156 -37 -5 -10 -11 -74 -14
-142 -3 -87 -9 -126 -17 -129 -10 -3 -13 51 -13 247 0 216 2 251 15 251 12 0
15 -18 15 -101z m-486 85 c19 -7 21 -40 4 -47 -29 -10 -53 25 -31 46 8 8 8 8
27 1z m4 -306 c-2 -126 -6 -172 -15 -176 -10 -3 -13 36 -13 172 0 151 2 176
15 176 13 0 15 -23 13 -172z m347 142 c35 -33 16 -49 -23 -21 -36 25 -107 28
-140 5 -34 -24 -52 -68 -52 -129 0 -67 20 -109 60 -130 41 -21 86 -19 131 7
42 23 61 19 38 -8 -20 -24 -72 -44 -116 -44 -134 0 -200 189 -106 300 35 42
57 50 125 47 44 -3 64 -9 83 -27z m-503 -563 c165 -44 303 -128 398 -242 54
-65 125 -209 152 -310 20 -71 22 -105 22 -305 0 -256 -11 -315 -83 -465 -76
-159 -176 -262 -327 -335 -159 -78 -192 -83 -602 -88 -334 -3 -365 -2 -383 14
-18 17 -19 43 -19 871 0 853 0 853 21 874 21 21 26 21 372 17 340 -5 355 -6
449 -31z m1635 -529 c74 -30 111 -59 151 -118 43 -62 61 -118 72 -225 13 -120
13 -826 0 -859 -8 -21 -16 -26 -44 -26 -19 0 -38 6 -43 13 -4 6 -10 56 -13
110 l-5 99 -35 -54 c-70 -106 -186 -168 -331 -176 -147 -8 -264 32 -352 120
-73 73 -101 143 -101 250 1 241 149 321 619 336 l200 7 -1 120 c-2 179 -37
254 -143 304 -51 24 -67 26 -171 25 -140 -1 -238 -29 -346 -99 -75 -48 -117
-57 -134 -26 -15 28 -13 36 16 70 30 35 126 91 199 116 155 52 351 58 462 13z
m575 20 c9 -7 126 -262 261 -567 199 -451 247 -550 255 -535 5 11 112 247 236
526 124 279 233 523 243 543 15 32 21 36 53 33 31 -3 35 -7 38 -33 2 -22 -96
-248 -363 -840 -201 -445 -372 -816 -380 -824 -19 -19 -68 -4 -73 22 -2 9 38
108 89 219 50 112 92 208 92 214 0 6 -120 276 -266 600 -147 324 -267 597
-267 606 0 17 36 48 55 48 6 0 18 -6 27 -12z m-1779 -2601 l22 18 -19 -23
c-19 -22 -19 -22 10 -55 l29 -32 -32 29 -31 28 -5 -28 c-2 -16 -4 -2 -4 31 0
33 2 50 4 37 5 -23 5 -23 26 -5z m107 -22 c28 0 35 5 41 25 5 16 7 4 7 -35 -1
-33 -3 -48 -5 -32 -4 24 -8 27 -43 27 -35 0 -39 -3 -43 -27 -2 -16 -4 -1 -5
32 0 39 2 51 7 35 6 -20 13 -25 41 -25z m126 33 c4 -7 3 -8 -4 -4 -7 4 -12 2
-12 -5 0 -7 -3 -10 -6 -6 -6 5 3 27 11 27 2 0 7 -5 11 -12z m107 -91 c31 -4
31 -4 -5 -5 l-38 -2 2 58 2 57 3 -52 c4 -50 5 -52 36 -56z m80 96 c-25 -3 -33
-9 -33 -24 0 -14 7 -19 28 -20 l27 -2 -27 -4 c-42 -6 -38 -40 5 -46 31 -4 31
-4 -5 -5 l-38 -2 0 55 0 55 38 -2 c36 -1 36 -1 5 -5z m128 -10 c11 -15 11 -16
-1 -5 -8 6 -27 12 -42 12 -27 0 -28 -2 -28 -45 0 -43 1 -45 30 -45 25 0 34 6
45 33 8 17 14 25 15 17 0 -32 -30 -60 -66 -60 l-34 0 0 55 0 55 34 0 c20 0 39
-7 47 -17z m80 -15 l13 -31 15 31 c23 51 41 41 41 -23 0 -55 -16 -76 -27 -35
-5 19 -6 19 -19 3 -12 -17 -13 -17 -20 1 -7 18 -8 18 -15 -2 -15 -40 -29 -23
-29 33 0 64 19 75 41 23z m189 13 c24 -46 0 -91 -49 -91 -35 0 -51 17 -51 55
0 40 16 55 57 55 22 0 36 -6 43 -19z m60 -1 c0 -13 7 -20 20 -20 13 0 20 7 20
20 0 11 7 20 15 20 12 0 15 -13 15 -55 0 -42 -3 -55 -15 -55 -8 0 -15 9 -15
20 0 13 -7 20 -19 20 -10 0 -21 -9 -24 -20 -11 -41 -27 -20 -27 35 0 42 3 55
15 55 8 0 15 -9 15 -20z m180 -30 c23 -49 22 -76 -2 -52 -15 15 -65 16 -70 0
-2 -6 -9 -8 -16 -4 -15 9 32 106 51 106 8 0 24 -22 37 -50z m76 18 l17 -33 15
33 c24 51 42 41 42 -23 0 -42 -3 -55 -15 -55 -9 0 -15 9 -15 23 0 18 -2 19
-10 7 -8 -12 -13 -13 -30 -2 -18 11 -20 10 -20 -9 0 -36 -25 -14 -28 25 -6 71
16 88 44 34z m174 22 c0 -5 -11 -10 -25 -10 -14 0 -25 -4 -25 -10 0 -5 11 -10
25 -10 14 0 25 -4 25 -10 0 -5 -11 -10 -25 -10 -16 0 -25 -6 -25 -15 0 -9 9
-15 25 -15 14 0 25 -4 25 -10 0 -5 -18 -10 -40 -10 l-40 0 0 55 0 55 40 0 c22
0 40 -4 40 -10z m108 -2 c17 -17 15 -64 -4 -83 -11 -10 -29 -15 -53 -13 -34 3
-36 5 -39 42 -2 21 -1 44 2 52 7 17 77 19 94 2z m-1148 -68 c0 -4 -16 -4 -36
-2 -24 3 -39 0 -45 -9 -5 -8 -9 -9 -8 -4 0 6 7 21 15 35 8 14 13 17 10 8 -4
-14 0 -18 20 -18 21 0 24 3 19 23 -5 20 -5 20 9 -3 9 -14 15 -27 16 -30z"/>
<path d="M690 2440 l0 -802 318 4 c287 4 325 7 396 26 251 69 395 217 469 481
18 67 21 103 21 291 0 190 -3 224 -22 294 -38 136 -86 222 -171 306 -91 90
-164 131 -298 167 -93 25 -114 26 -405 31 l-308 4 0 -802z"/>
<path d="M2880 2143 c-165 -11 -285 -43 -339 -89 -33 -27 -61 -99 -61 -154 0
-95 63 -191 158 -237 50 -25 68 -28 152 -28 86 0 101 3 160 31 160 77 240 213
240 406 l0 78 -132 -2 c-73 -1 -153 -3 -178 -5z"/>
<path d="M2614 176 c-10 -26 0 -51 21 -51 16 0 20 7 20 30 0 33 -30 49 -41 21z"/>
<path d="M2875 160 c-3 -5 -1 -10 4 -10 6 0 11 5 11 10 0 6 -2 10 -4 10 -3 0
-8 -4 -11 -10z"/>
<path d="M3220 156 c0 -37 5 -42 28 -27 19 12 11 55 -10 59 -15 3 -18 -4 -18
-32z"/>
</g>
</svg>
